<?xml version="1.0" encoding="UTF-8" standalone="no"?>
<!DOCTYPE svg PUBLIC "-//W3C//DTD SVG 1.1//EN" "http://www.w3.org/Graphics/SVG/1.1/DTD/svg11.dtd">
<svg width="100%" height="100%" viewBox="0 0 26 26" version="1.1" xmlns="http://www.w3.org/2000/svg" xmlns:xlink="http://www.w3.org/1999/xlink" xml:space="preserve" xmlns:serif="http://www.serif.com/" style="fill-rule:evenodd;clip-rule:evenodd;stroke-linejoin:round;stroke-miterlimit:2;">
    <path d="M26,13C26,5.825 20.175,0 13,0C5.825,0 0,5.825 0,13C0,20.175 5.825,26 13,26C20.175,26 26,20.175 26,13Z" style="fill:rgb(49,49,49);"/>
    <g transform="matrix(1,0,0,1,7.00013,6.9153)">
        <path d="M7.43,7.968C8.792,7.406 9.75,6.065 9.75,4.5C9.75,2.429 8.071,0.75 6,0.75C3.929,0.75 2.25,2.429 2.25,4.5C2.25,6.065 3.208,7.406 4.57,7.968C3.176,8.2 1.893,8.766 0.808,9.581L2.19,11.419C3.251,10.622 4.569,10.15 6,10.15C7.431,10.15 8.749,10.622 9.81,11.419L11.191,9.581C10.107,8.766 8.824,8.2 7.43,7.968Z" style="fill:white;"/>
    </g>
</svg>
