<?xml version="1.0" encoding="UTF-8" standalone="no"?>
<!DOCTYPE svg PUBLIC "-//W3C//DTD SVG 1.1//EN" "http://www.w3.org/Graphics/SVG/1.1/DTD/svg11.dtd">
<svg width="100%" height="100%" viewBox="0 0 32 32" version="1.1" xmlns="http://www.w3.org/2000/svg" xmlnsXlink="http://www.w3.org/1999/xlink" xmlSpace="preserve" xmlnsSerif="http://www.serif.com/" style="fill-rule:evenodd;clip-rule:evenodd;stroke-linejoin:round;stroke-miterlimit:2;">
    <path d="M16,0C7.164,0 0,7.164 0,16C0,24.836 7.164,32 16,32C24.836,32 32,24.836 32,16C32,7.164 24.836,0 16,0ZM16,30C8.28,30 2,23.72 2,16C2,8.28 8.28,2 16,2C23.72,2 30,8.28 30,16C30,23.72 23.72,30 16,30ZM16,6C14.903,6 14,6.903 14,8L14,18C14,19.097 14.903,20 16,20C17.097,20 18,19.097 18,18L18,8C18,6.903 17.097,6 16,6ZM14,23.968C14,25.065 14.903,25.968 16,25.968C17.097,25.968 18,25.065 18,23.968C18,22.871 17.097,21.968 16,21.968C14.903,21.968 14,22.871 14,23.968Z" style="fill:white;fill-rule:nonzero;"/>
</svg>
