<svg width="38" height="38" viewBox="0 0 38 38" fill="none" xmlns="http://www.w3.org/2000/svg">
<path fill-rule="evenodd" clip-rule="evenodd" d="M19 38C29.4934 38 38 29.4934 38 19C38 8.50659 29.4934 0 19 0C8.50659 0 0 8.50659 0 19C0 29.4934 8.50659 38 19 38Z" fill="#3DDC84"/>
<path fill-rule="evenodd" clip-rule="evenodd" d="M24.8674 22C24.5076 22 24.1809 22.1973 23.9737 22.4915C22.8976 24.0194 21.1377 25 19.1858 25C15.985 25 13.3008 22.3634 13.3008 19C13.3008 15.6366 15.985 13 19.1858 13C21.1377 13 22.8976 13.9806 23.9737 15.5085C24.1809 15.8027 24.5076 16 24.8674 16H28.3428C29.0049 16 29.484 15.3664 29.2305 14.7547C27.5867 10.7873 23.7083 8 19.1858 8C13.1742 8 8.30078 12.9249 8.30078 19C8.30078 25.0751 13.1742 30 19.1858 30C23.7083 30 27.5867 27.2127 29.2305 23.2453C29.484 22.6336 29.0049 22 28.3428 22H24.8674Z" fill="white"/>
</svg>
